<svg width="15" height="13" viewBox="0 0 15 13" fill="none" xmlns="http://www.w3.org/2000/svg">
<path d="M7.43872 0.920654C7.62622 1.10815 7.71997 1.35815 7.71997 1.60815C7.71997 1.8894 7.62622 2.1394 7.43872 2.3269L4.15747 5.60815L13.72 5.60815C14.2825 5.60815 14.72 6.0769 14.72 6.60815C14.72 7.10815 14.2825 7.60815 13.72 7.60815L4.15747 7.60815L7.43872 10.9207C7.84497 11.2957 7.84497 11.9519 7.43872 12.3269C7.06372 12.7332 6.40747 12.7332 6.03247 12.3269L1.03247 7.3269C0.62622 6.9519 0.62622 6.29565 1.03247 5.92065L6.03247 0.920654C6.40747 0.514404 7.06372 0.514404 7.43872 0.920654Z" fill="white"/>
</svg>
